<?xml version="1.0" encoding="utf-8"?>
<!-- Generator: Adobe Illustrator 23.0.1, SVG Export Plug-In . SVG Version: 6.00 Build 0)  -->
<svg version="1.1" xmlns="http://www.w3.org/2000/svg" xmlns:xlink="http://www.w3.org/1999/xlink" x="0px" y="0px"
	 viewBox="0 0 24 24" style="enable-background:new 0 0 24 24;" xml:space="preserve">
<style type="text/css">
	.st0{fill:url(#SVGID_1_);}
	.st1{display:none;fill:#020203;}
	.st2{fill:none;stroke:#F6F6F6;stroke-width:1.25;stroke-miterlimit:10;}
</style>
<g id="Layer_1">
</g>
<g id="Layer_2">
	<g>
		<linearGradient id="SVGID_1_" gradientUnits="userSpaceOnUse" x1="12" y1="23.0811" x2="12" y2="0.9189">
			<stop  offset="2.321990e-07" style="stop-color:#704394"/>
			<stop  offset="0.1261" style="stop-color:#914280"/>
			<stop  offset="0.4121" style="stop-color:#D33644"/>
			<stop  offset="0.5058" style="stop-color:#E62E2B"/>
			<stop  offset="0.6565" style="stop-color:#EB5F34"/>
			<stop  offset="0.8902" style="stop-color:#F59A42"/>
			<stop  offset="1" style="stop-color:#F9AF48"/>
		</linearGradient>
		<path class="st0" d="M20.6,23.1H3.4c-1.4,0-2.5-1.1-2.5-2.5V3.4C0.9,2,2,0.9,3.4,0.9h17.2c1.4,0,2.5,1.1,2.5,2.5v17.2
			C23.1,22,22,23.1,20.6,23.1z"/>
	</g>
	<path class="st1" d="M20.7,8.7l-5.4-5.4l0,0c-0.5-0.5-1.2-0.5-1.7,0l-0.2,0.2c-0.5-0.1-1.1-0.2-1.7-0.2C8,3.2,5,6.2,5,9.8
		c0,4.9,6.1,10.7,6.4,10.9c0.1,0.1,0.2,0.1,0.3,0.1s0.2,0,0.3-0.1c0.2-0.2,5.5-5.2,6.3-9.9l1.1,1.1c0.1,0.1,0.3,0.1,0.4,0l1-1
		C21.4,10.4,21.3,9.3,20.7,8.7z M14.8,3.7L14.8,3.7l4.4,4.4c-0.4,0-0.7,0.2-1,0.5L18,8.8c0,0,0,0,0,0l-2.9,2.9l-3.4,3.4
		c-0.1,0-0.1,0-0.2,0c0,0,0,0-0.1,0c0,0-0.1-0.1-0.1-0.2l0.1-4c0-0.1-0.1-0.2-0.2-0.2l-4,0.1c-0.1,0-0.2,0-0.2-0.1
		c0-0.1,0-0.2,0.1-0.2L8.6,9L14,3.7C14.2,3.4,14.6,3.4,14.8,3.7z M20.3,10.6l-0.8,0.8l-1.3-1.2c0-0.1,0-0.2,0-0.3c0-0.1,0-0.3,0-0.4
		L18.7,9c0.4-0.4,1.1-0.4,1.5,0l0,0l0.1,0.1C20.7,9.5,20.7,10.2,20.3,10.6z"/>
</g>
<g id="Layer_4">
	<path class="st2" d="M11.1,20.9c-0.1,0-0.2,0-0.3-0.1C10.6,20.6,4.3,15,4.3,9.6c0-3.8,3.1-6.8,6.8-6.8c0.7,0,1.4,0.1,2.1,0.3
		c0.5-0.6,1.1-1.1,1.7-0.7c0.7,0.4,4.1,4.6,5.8,6.5c0.1,0.1,0.5,1.1-1.6,2.6c-0.2-0.1-0.9-1-1.2-1.4c-0.8,5.9-6.3,10.6-6.6,10.8
		C11.3,20.9,11.2,20.9,11.1,20.9z"/>
	<g>
		<g>
			<path class="st2" d="M15.3,2.8L15.3,2.8l5.1,5.4c0.6,0.7,0.6,1.7,0,2.3l-1,1c-0.1,0.1-0.3,0.1-0.4,0l-1.7-1.8l-6,5.6
				c-0.2,0.2-0.4,0.3-0.7,0.3c-0.4,0-0.7-0.2-0.8-0.5c-0.1-0.3-0.1-0.6,0-0.9l0.8-3.3l-3.3,0.6c-0.3,0.1-0.6,0-0.9-0.1
				c-0.3-0.2-0.5-0.5-0.5-0.9c0-0.3,0.2-0.5,0.3-0.7l7.5-7.1C14.1,2.3,14.8,2.3,15.3,2.8z M17.6,9.2l1.5,1.6L20,10
				c0.4-0.4,0.4-1,0-1.4l-0.1-0.1l0,0c-0.4-0.4-1-0.4-1.4-0.1L17.6,9.2z"/>
		</g>
	</g>
</g>
<g id="Layer_3">
</g>
</svg>
