<?xml version="1.0" encoding="utf-8"?>
<!-- Generator: Adobe Illustrator 23.0.1, SVG Export Plug-In . SVG Version: 6.00 Build 0)  -->
<svg version="1.1" id="Layer_1" xmlns="http://www.w3.org/2000/svg" xmlns:xlink="http://www.w3.org/1999/xlink" x="0px" y="0px"
	 viewBox="0 0 512 512" style="enable-background:new 0 0 512 512;" xml:space="preserve">
<style type="text/css">
	.st0{fill:url(#SVGID_1_);}
</style>
<linearGradient id="SVGID_1_" gradientUnits="userSpaceOnUse" x1="256" y1="512" x2="256" y2="0.8444">
	<stop  offset="0" style="stop-color:#833AB4"/>
	<stop  offset="0.5855" style="stop-color:#FD1D1D"/>
	<stop  offset="1" style="stop-color:#FCB045"/>
</linearGradient>
<path class="st0" d="M130.9,194.7c0,69.1,55.9,125.1,125.1,125.1s125.1-55.9,125.1-125.1S325.1,69.7,256,69.7
	S130.9,125.6,130.9,194.7z M256,123.3c39.5,0,71.5,32,71.5,71.5s-32,71.5-71.5,71.5s-71.5-32-71.5-71.5S216.5,123.3,256,123.3z
	 M273.9,0.8c92.1,8.6,165.6,83,173.4,176h-31.4c-8-74.5-67.5-134-142-142V0.8z M447.1,212.6C433.6,357.9,273.7,501.7,266.6,508
	c-3.1,2.7-6.8,4-10.6,4s-7.6-1.3-10.6-4.1c-7.1-6.3-167-150.1-180.4-295.4h31.2c8,74.5,67.5,134,142,142v36.6h35.7v-36.6
	c74.5-8,134-67.5,142-142H447.1z M64.7,176.8c7.9-93,81.3-167.4,173.4-176v34c-74.5,8-134,67.5-142,142H64.7z"/>
</svg>