<?xml version="1.0" encoding="utf-8"?>
<!-- Generator: Adobe Illustrator 23.0.1, SVG Export Plug-In . SVG Version: 6.00 Build 0)  -->
<svg version="1.1" id="Capa_1" xmlns="http://www.w3.org/2000/svg" xmlns:xlink="http://www.w3.org/1999/xlink" x="0px" y="0px"
	 viewBox="0 0 512 512" style="enable-background:new 0 0 512 512;" xml:space="preserve">
<style type="text/css">
	.st0{fill:#6930C3;}
	.st1{fill:#7400B8;}
	.st2{fill:#39326C;}
	.st3{fill:#FFF5F5;}
	.st4{fill:#EBE1DC;}
	.st5{display:none;fill:#51489A;}
	.st6{display:none;fill:#39326C;}
	.st7{fill:#51489A;}
</style>
<g>
	<g>
		<path class="st0" d="M461.4,427.5l-206.7,75.2c-23.3,8.5-49.2-3.6-57.7-26.9L73.2,135.6c-8.5-23.3,3.6-49.2,26.9-57.7L306.8,2.7
			c23.3-8.5,49.2,3.6,57.7,26.9l123.8,340.2C496.8,393.1,484.7,419,461.4,427.5L461.4,427.5z"/>
		<path class="st1" d="M306.8,2.7L203.4,40.3L358,465.1l103.4-37.6c23.3-8.5,35.4-34.4,26.9-57.7L364.5,29.6
			C356,6.3,330.1-5.8,306.8,2.7L306.8,2.7z"/>
		<path class="st2" d="M412.7,381.3c-7.8,2.8-16.4-1.2-19.2-9l-10.3-28.2c-2.8-7.8,1.2-16.4,9-19.2c7.8-2.8,16.4,1.2,19.2,9
			l10.3,28.2C424.5,369.9,420.5,378.5,412.7,381.3z"/>
	</g>
	<g>
		<path class="st3" d="M286,512H66c-24.8,0-45-20.2-45-45V105c0-24.8,20.2-45,45-45h220c24.8,0,45,20.2,45,45v362
			C331,491.8,310.8,512,286,512z"/>
		<path class="st4" d="M286,60H176v452h110c24.8,0,45-20.2,45-45V105C331,80.2,310.8,60,286,60z"/>
		<path class="st5" d="M211,371h-70c-9.8,0-16.9-9.2-14.6-18.6l4.8-19.4c-9.3-2.3-17.9-7-24.8-13.9c-9.9-9.9-15.3-22.9-15.5-36.9
			c-0.1-14.5,5.9-28.3,16.1-38.5l58.3-58.3c5.9-5.9,15.4-5.9,21.2,0l58.9,58.9c20.6,20.6,20.6,54.2,0,74.8
			c-6.9,6.9-15.5,11.7-24.8,13.9l4.8,19.4C227.9,361.8,220.8,371,211,371L211,371z"/>
		<path class="st6" d="M211,371c9.8,0,16.9-9.2,14.6-18.6l-4.8-19.4c9.3-2.3,17.9-7,24.8-13.9c20.6-20.6,20.6-54.2,0-74.8
			l-58.9-58.9c-2.9-2.9-6.8-4.4-10.6-4.4v190H211z"/>
		<path class="st7" d="M96,180c-8.3,0-15-6.7-15-15v-30c0-8.3,6.7-15,15-15s15,6.7,15,15v30C111,173.3,104.3,180,96,180z"/>
		<path class="st2" d="M256,452c-8.3,0-15-6.7-15-15v-30c0-8.3,6.7-15,15-15s15,6.7,15,15v30C271,445.3,264.3,452,256,452z"/>
	</g>
	<g>
		<path class="st7" d="M173.3,181.2c-35.6,0-64.5,28.9-64.5,64.5c0,8.3,6.7,15,15,15s15-6.7,15-15c0-19,15.5-34.5,34.5-34.5
			s34.5,15.5,34.5,34.5s-15.5,34.5-34.5,34.5c-8.3,0-15,6.7-15,15v33.9c0,8.3,6.7,15,15,15s15-6.7,15-15v-20.7
			c28.4-6.8,49.5-32.3,49.5-62.8C237.8,210.1,208.9,181.2,173.3,181.2z"/>
		<circle class="st7" cx="173.3" cy="380.1" r="21"/>
	</g>
</g>
</svg>
