<svg xmlns="http://www.w3.org/2000/svg" xmlns:xlink="http://www.w3.org/1999/xlink" width="22.16" height="22.16" viewBox="0 0 22.16 22.16">
  <defs>
    <linearGradient id="e53ea370-9c67-4866-8094-7765b7e971a8" x1="11.08" y1="22.16" x2="11.08" gradientUnits="userSpaceOnUse">
      <stop offset="0" stop-color="#704394"/>
      <stop offset="0.22" stop-color="#a13a68"/>
      <stop offset="0.51" stop-color="#e62e2b"/>
      <stop offset="0.63" stop-color="#eb5133"/>
      <stop offset="0.88" stop-color="#f59542"/>
      <stop offset="1" stop-color="#f9af48"/>
    </linearGradient>
  </defs>
  <title>backgroundline1</title>
  <g id="f6e6dcc1-56b8-48f9-8fb3-1cece6417f8c" data-name="Layer 2">
    <rect width="22.16" height="22.16" rx="3.47" style="fill: url(#e53ea370-9c67-4866-8094-7765b7e971a8)"/>
  </g>
  <g id="f3e6cded-835d-4197-bec4-65f3d54c7a12" data-name="Layer 4">
    <path d="M11.11,20.94a.38.38,0,0,1-.25-.09C10.59,20.61,4.29,15,4.29,9.58a6.84,6.84,0,0,1,8.91-6.5c.54-.64,1.07-1.09,1.72-.74S19,6.91,20.73,8.86c.08.1.46,1.05-1.6,2.56A11.25,11.25,0,0,1,17.92,10c-.78,5.91-6.3,10.59-6.56,10.82A.38.38,0,0,1,11.11,20.94Z" transform="translate(-0.92 -0.92)" style="fill: none;stroke: #f6f6f6;stroke-miterlimit: 10;stroke-width: 0.75px"/>
    <path d="M15.29,2.78h0l5.09,5.39a1.61,1.61,0,0,1,0,2.29l-1.05,1a.29.29,0,0,1-.41,0L17.17,9.61l-6,5.62a1.07,1.07,0,0,1-.67.31A.83.83,0,0,1,9.72,15a1.45,1.45,0,0,1,0-.94l.81-3.28-3.32.62a1.6,1.6,0,0,1-.94-.08.84.84,0,0,1-.47-.87,1.1,1.1,0,0,1,.35-.65l7.52-7.11A1.17,1.17,0,0,1,15.29,2.78ZM17.61,9.2l1.52,1.61L20,10a1,1,0,0,0,0-1.44l-.1-.11h0a1,1,0,0,0-1.44-.06Z" transform="translate(-0.92 -0.92)" style="fill: none;stroke: #f6f6f6;stroke-miterlimit: 10;stroke-width: 0.75px"/>
  </g>
</svg>
