<?xml version="1.0" encoding="utf-8"?>
<!-- Generator: Adobe Illustrator 23.0.1, SVG Export Plug-In . SVG Version: 6.00 Build 0)  -->
<svg version="1.1" id="Layer_1" xmlns="http://www.w3.org/2000/svg" xmlns:xlink="http://www.w3.org/1999/xlink" x="0px" y="0px"
	 viewBox="0 0 868.7 410.7" style="enable-background:new 0 0 868.7 410.7;" xml:space="preserve">
<style type="text/css">
	.st0{opacity:0.6;}
	.st1{fill:#ffffff;stroke:#ffffff;stroke-width:0.3;stroke-miterlimit:10;}
</style>
<title>Asset 2</title>
<g>
	<g id="OBJECTS">
		<g class="st0">
			<path class="st1" d="M1.9,410.7c-1.2-13.2-1.8-26.5-1.9-39.8s0.3-26.6,1.2-39.9c0.9-13.3,2.6-26.5,5.2-39.5
				c2.4-13.1,6.3-25.9,11.5-38.1c2.6-6.1,5.9-11.9,9.7-17.4c3.8-5.5,8.3-10.4,13.6-14.5c5.3-4.1,11.2-7.2,17.7-9.1
				c6.4-1.8,13.1-2.5,19.8-2.1c6.7,0.4,13.2,1.6,19.6,3.5c6.4,1.9,12.6,4.3,18.6,7.1c12,5.7,23.5,12.5,34.3,20.2
				c5.5,3.8,10.8,7.8,16,11.9s10.6,7.9,16.1,11.7c10.9,7.5,22.3,14.6,34.5,19.9c6.1,2.7,12.4,4.6,19,5.7c3.3,0.5,6.6,0.6,9.9,0.3
				c3.3-0.3,6.5-1.2,9.5-2.6c6-2.8,10.7-7.8,14.2-13.4c3.4-5.7,6.3-11.7,8.4-18c4.4-12.5,7.6-25.5,11.3-38.2s7.9-25.5,14.1-37.3
				c3.1-5.9,6.8-11.5,11.1-16.6c8.7-10.3,20.4-17.5,33.5-20.7c6.5-1.6,13.1-2.4,19.8-2.4c13.4-0.1,26.6,2.1,39.5,5.5
				c6.5,1.7,12.8,3.6,19.1,5.8s12.5,4.5,18.8,6.7c12.5,4.4,25.2,8.4,38.1,11.6c6.5,1.6,13,3,19.5,4c6.6,1.1,13.2,1.6,19.8,1.5
				c6.6-0.2,13.3-1.1,19.3-3.9c3-1.4,5.7-3.3,8-5.7c2.3-2.4,4.1-5.2,5.3-8.3c2.6-6.1,3.5-12.8,4.1-19.4s0.8-13.3,1.8-19.9
				c0.5-3.3,1.4-6.5,2.7-9.6c1.3-3.1,3.4-5.8,6.1-7.8c2.7-2,5.9-3.3,9.3-3.8c3.3-0.5,6.7-0.7,10-0.4c6.6,0.5,13.2,1.8,19.6,3.6
				c6.4,1.8,12.7,3.9,19,6.2c3.1,1.2,6.2,2.4,9.3,3.6l9.3,3.8c6.2,2.4,12.4,4.7,18.8,6.6c6.3,2,12.8,3.5,19.4,4.4
				c6.6,0.9,13.3,1.1,19.8-0.4c3.2-0.8,6.3-2.1,9.1-3.9c2.8-1.9,5.1-4.2,7.1-6.9c3.9-5.4,6.1-11.8,7.8-18.2s2.8-13,4-19.5
				s2.4-13.1,4.1-19.5c1.6-6.5,3.8-12.8,6.5-18.8c2.8-6,6.5-11.6,11.1-16.5c4.6-4.8,9.9-8.9,15.9-11.9c5.9-3,12.2-5.3,18.7-6.8
				c13-3,26.4-3.6,39.7-3.1c13.3,0.6,26.5,2.1,39.6,4.4c-13.1-2.3-26.3-3.8-39.6-4.4c-13.3-0.5-26.7,0.1-39.6,3.1
				c-6.5,1.5-12.8,3.8-18.7,6.8c-5.9,3-11.3,7.1-15.9,11.9c-4.5,4.9-8.2,10.5-11,16.5c-2.8,6-5,12.3-6.5,18.8
				c-1.6,6.4-2.9,13-4,19.5s-2.3,13.1-4,19.5s-3.9,12.8-7.8,18.3c-1.9,2.7-4.3,5.1-7.1,7c-2.8,1.8-5.9,3.2-9.2,3.9
				c-6.5,1.6-13.3,1.3-19.8,0.4c-6.6-1-13.1-2.5-19.4-4.4c-6.4-1.9-12.6-4.2-18.8-6.6l-9.3-3.7c-3.1-1.2-6.2-2.4-9.3-3.6
				c-6.2-2.3-12.5-4.4-19-6.2c-6.4-1.8-12.9-3-19.6-3.6c-3.3-0.2-6.6-0.1-9.9,0.4c-3.3,0.5-6.4,1.8-9.1,3.7c-2.6,2-4.7,4.7-6,7.7
				c-1.3,3.1-2.2,6.3-2.7,9.6c-1.1,6.6-1.2,13.2-1.8,19.8s-1.5,13.3-4.1,19.5c-1.3,3.1-3.1,5.9-5.4,8.4c-2.3,2.4-5.1,4.4-8.1,5.8
				c-6.1,2.8-12.8,3.7-19.5,3.9c-6.7,0.1-13.3-0.4-19.9-1.5c-6.6-1-13.1-2.4-19.6-4c-12.9-3.2-25.6-7.2-38.2-11.6
				c-6.3-2.2-12.5-4.6-18.8-6.7s-12.6-4.1-19.1-5.8c-12.9-3.3-26.1-5.6-39.3-5.4c-6.6,0-13.2,0.8-19.7,2.4
				c-13,3.1-24.7,10.3-33.3,20.5c-4.3,5.1-8,10.6-11,16.5c-6.2,11.8-10.4,24.5-14.1,37.2s-6.9,25.7-11.4,38.2
				c-2.1,6.3-5,12.4-8.4,18.1c-3.5,5.6-8.3,10.7-14.4,13.5c-3,1.4-6.3,2.3-9.6,2.6c-3.3,0.3-6.7,0.2-10-0.3c-6.6-1.1-13-3-19.1-5.8
				c-12.2-5.3-23.6-12.4-34.5-19.9c-5.5-3.8-10.8-7.7-16.1-11.8s-10.6-8.1-16-11.9c-10.8-7.7-22.3-14.5-34.3-20.2
				c-12-5.6-24.8-9.9-38.2-10.7c-6.6-0.4-13.3,0.3-19.7,2.1c-6.4,1.9-12.4,4.9-17.6,9c-5.2,4.1-9.8,9-13.6,14.5
				c-3.8,5.5-7,11.3-9.7,17.4c-5.2,12.2-9.1,25-11.5,38.1c-2.5,13-4.3,26.2-5.2,39.5c-1,13.3-1.3,26.6-1.3,39.9S0.7,397.5,1.9,410.7
				z"/>
		</g>
	</g>
</g>
</svg>
